<svg width="1920" height="1079" viewBox="0 0 1920 1079" fill="none" xmlns="http://www.w3.org/2000/svg">
<g opacity="0.7">
<path d="M0.13 64.43V0.04C3.51 0.04 501.99 0.06 506.3 0.04C663.59 -1.82 810 56.37 918.63 163.73C1130.14 372.81 1130.4 703.3 920.06 912.87C812.42 1020.12 665.95 1079.53 506.66 1078.99C453.6 1078.84 61.12 1078.86 0.15 1078.86V1014.47C0.15 975.8 32.66 944.35 72.62 944.35H513.69C747.9 944.35 938.44 762.71 938.44 539.46C938.44 316.21 748.06 134.57 514.09 134.57H72.6C32.64 134.57 0.13 103.11 0.13 64.43Z" fill="#111111"/>
<path d="M1418.83 330.94L1077.54 0.1H1211.59C1244.14 0.1 1275.04 12.68 1298.58 35.54C1308.06 44.93 1297.13 31.04 1565.19 293.18L1526.52 331.05C1496.91 360.08 1448.58 360.02 1418.84 330.95L1418.83 330.94ZM1725.22 1078.92H1652.49V562.8L1628.53 539.4L2142.27 35.91C2165.88 12.8 2196.92 0.08 2229.67 0.08H2364.15L1788.75 563.24V1013.47C1788.75 1049.55 1760.26 1078.91 1725.23 1078.91L1725.22 1078.92Z" fill="#111111"/>
</g>
</svg>
