<?xml version="1.0" encoding="UTF-8"?><svg id="_Слой_1" xmlns="http://www.w3.org/2000/svg" xmlns:xlink="http://www.w3.org/1999/xlink" viewBox="0 0 17.66 16"><defs><style>.cls-1{opacity:.7;}.cls-2{fill:none;}.cls-2,.cls-3,.cls-4{stroke-width:0px;}.cls-3{fill:#1e1e1c;}.cls-4{fill:#111;}.cls-5{clip-path:url(#clippath);}</style><clipPath id="clippath"><circle class="cls-2" cx="8" cy="8" r="8"/></clipPath></defs><g class="cls-5"><circle class="cls-3" cx="8" cy="8" r="8"/><g class="cls-1"><path class="cls-4" d="M.55,4.7v-.47s3.63,0,3.66,0c1.14-.01,2.2.41,2.98,1.18,1.53,1.51,1.53,3.9.01,5.42-.78.78-1.84,1.21-2.99,1.2-.38,0-3.22,0-3.67,0v-.47c0-.28.24-.51.52-.51h3.19c1.69,0,3.07-1.31,3.07-2.93s-1.38-2.93-3.07-2.93H1.08c-.29,0-.52-.23-.52-.51Z"/><path class="cls-4" d="M10.82,6.63l-2.47-2.39h.97c.24,0,.46.09.63.26.07.07-.01-.03,1.93,1.86l-.28.27c-.21.21-.56.21-.78,0ZM13.04,12.04h-.53v-3.73l-.17-.17,3.72-3.64c.17-.17.4-.26.63-.26h.97l-4.16,4.08v3.26c0,.26-.21.47-.46.47Z"/></g></g></svg>